<svg width="40" height="40" viewBox="0 0 40 40" fill="none" xmlns="http://www.w3.org/2000/svg">
<path d="M0 20C0 8.95161 8.95161 0 20 0C31.0484 0 40 8.95161 40 20C40 31.0484 31.0484 40 20 40C8.95161 40 0 31.0484 0 20ZM18.629 10.8145L7.70161 21.7419C6.94355 22.5 6.94355 23.7258 7.70161 24.4758L9.07258 25.8468C9.83064 26.6048 11.0565 26.6048 11.8065 25.8468L20 17.6532L28.1935 25.8468C28.9516 26.6048 30.1774 26.6048 30.9274 25.8468L32.2984 24.4758C33.0564 23.7177 33.0564 22.4919 32.2984 21.7419L21.371 10.8145C20.6129 10.0565 19.3871 10.0565 18.629 10.8145Z" fill="#372AAC"/>
</svg>
