<svg width="30" height="22" viewBox="0 0 30 22" fill="none" xmlns="http://www.w3.org/2000/svg">
<path d="M29.0625 18.3333H3.75V0.916667C3.75 0.410208 3.33047 0 2.8125 0H0.9375C0.419531 0 0 0.410208 0 0.916667V20.1667C0 21.179 0.839648 22 1.875 22H29.0625C29.5805 22 30 21.5898 30 21.0833V19.25C30 18.7435 29.5805 18.3333 29.0625 18.3333ZM27.1875 1.83333H20.2699C19.0172 1.83333 18.3896 3.31432 19.2756 4.18057L21.174 6.03682L16.875 10.2409L12.576 6.0374C11.8436 5.32125 10.6564 5.32125 9.92461 6.0374L5.89981 9.97276C5.53359 10.3308 5.53359 10.9112 5.89981 11.2693L7.22519 12.5652C7.59141 12.9233 8.18496 12.9233 8.55117 12.5652L11.25 9.92578L15.549 14.1293C16.2814 14.8454 17.4686 14.8454 18.2004 14.1293L23.8254 8.62927L25.7238 10.4855C26.6098 11.3518 28.1244 10.7382 28.1244 9.51328V2.75C28.125 2.24354 27.7055 1.83333 27.1875 1.83333Z" fill="#FF6900"/>
</svg>
